<svg width="32" height="32" viewBox="0 0 32 32" fill="none" xmlns="http://www.w3.org/2000/svg">
<circle cx="16" cy="16" r="16" fill="white"/>
<path fill-rule="evenodd" clip-rule="evenodd" d="M6.55035 19.1239L9.17166 14.9492C9.32731 14.7013 9.59948 14.5508 9.8922 14.5508H18.414C19.5412 14.5508 20.5614 13.8836 21.0133 12.8509C21.3647 12.0476 20.7761 11.1477 19.8993 11.1477H11.9742L11.5488 11.254L13.6461 7.44078C13.7956 7.16891 14.0813 7 14.3915 7H22.0754C25.0543 7 27.1107 9.98279 26.0513 12.767L25.8631 13.2613C24.5444 16.7269 21.2218 19.0176 17.5138 19.0176H6.97575L6.55035 19.1239ZM8.36884 19.9747C7.05042 19.9747 5.83655 20.6925 5.20118 21.8477C4.61223 22.9185 5.38694 24.2287 6.60903 24.2287H10.8044L13.4631 19.8684L13.1441 19.9747H8.36884Z" fill="url(#paint0_linear_20_3)"/>
<defs>
<linearGradient id="paint0_linear_20_3" x1="18.0266" y1="5.52926" x2="2.26861" y2="30.1117" gradientUnits="userSpaceOnUse">
<stop stop-color="#DD59FF"/>
<stop offset="0.473958" stop-color="#5069FF"/>
<stop offset="1" stop-color="#0025FF"/>
</linearGradient>
</defs>
</svg>
