<svg height="121" viewBox="0 0 121 121" width="121" xmlns="http://www.w3.org/2000/svg"><g fill="none" fill-rule="evenodd"><circle cx="60.5" cy="60.5" fill="#0e0b0f" fill-rule="nonzero" r="60.5"/><circle cx="60.5" cy="60.5" r="60" stroke="#2d2c2e" stroke-opacity=".81"/><g fill-rule="nonzero"><path d="m81.1687 52.2147-11.653-11.6529h-17.6559l-5.6493 5.6499v-20.1277h-6.0037v35.6648 7.7686l11.653 11.6529h17.6559l5.6502-5.6499v20.1277h6.3563v-33.5462zm-14.4781 22.9526h-11.6522l-8.4753-8.4748v-4.9437-6.7092l8.4753-8.4748h11.6522l8.4753 8.4748v7.4155 4.2374z" fill="#fff"/><path d="m31.7334 72.6952v-32.1337h-6.0028v34.9586l20.481 20.4808h20.4801v-6.003h-17.6559z" fill="#6dd"/><path d="m55.0388 25.7305v6.003h17.6559l17.3024 17.3027v32.1337h6.0028v-34.9586l-20.481-20.4808z" fill="#6dd"/></g></g></svg>