<svg fill="none" height="100" viewBox="0 0 100 100" width="100" xmlns="http://www.w3.org/2000/svg" xmlns:xlink="http://www.w3.org/1999/xlink"><clipPath id="a"><path d="m0 0h100v100h-100z"/></clipPath><g clip-path="url(#a)"><path d="m50 0c9.8891 0 19.5561 2.93245 27.7785 8.42652 8.2225 5.49408 14.6311 13.30298 18.4155 22.43928s4.775 19.1897 2.8453 28.8887c-1.9293 9.6991-6.6913 18.6082-13.684 25.6008-6.9926 6.9927-15.9017 11.7547-25.6008 13.684-9.699 1.9297-19.7524.9391-28.8887-2.8453s-16.9452-10.193-22.43928-18.4155c-5.49407-8.2224-8.42652-17.8894-8.42652-27.7785 0-13.2608 5.26784-25.9785 14.6447-35.3553 9.3768-9.37686 22.0945-14.6447 35.3553-14.6447z" fill="#fbcc5c"/><g fill="#fff"><path d="m43.5421 73.7249c3.4085.0083 6.7429-.9948 9.5811-2.8825 2.8381-1.8876 5.0524-4.5748 6.3626-7.7215s1.6573-6.6114.9975-9.9555c-.6599-3.344-2.2971-6.4172-4.7043-8.8303-2.4073-2.4132-5.4764-4.0579-8.8189-4.7259-3.3424-.6681-6.8079-.3294-9.9578.973-3.1499 1.3025-5.8425 3.5102-7.7371 6.3438-1.8946 2.8335-2.9059 6.1654-2.9059 9.574 0 4.561 1.809 8.9359 5.0302 12.1649 3.2212 3.2291 7.5916 5.0488 12.1526 5.06zm0 6.2751c-4.6496.0083-9.1973-1.3629-13.0673-3.94-3.8701-2.5772-6.8887-6.2444-8.6738-10.5378-1.7852-4.2933-2.2566-9.0197-1.3546-13.581s3.1369-8.7525 6.4217-12.0433c3.2848-3.2907 7.4721-5.5331 12.0318-6.4433 4.5597-.9101 9.2869-.4472 13.5834 1.3302s7.9692 4.7894 10.5533 8.6549c2.584 3.8655 3.9634 8.4106 3.9634 13.0603.0055 3.084-.5972 6.1389-1.7736 8.9898-1.1763 2.8509-2.9034 5.4419-5.0822 7.6246s-4.7666 3.9144-7.6154 5.0959-5.9026 1.7897-8.9867 1.7897z"/><path d="m56.5 60.7249c3.4086.0083 6.7429-.9948 9.5811-2.8824s5.0525-4.5749 6.3626-7.7216c1.3102-3.1467 1.6573-6.6113.9975-9.9554-.6599-3.3441-2.2971-6.4172-4.7043-8.8304-2.4073-2.4131-5.4764-4.0578-8.8188-4.7259-3.3425-.668-6.808-.3294-9.9579.9731-3.1499 1.3024-5.8425 3.5102-7.7371 6.3437s-2.9059 6.1654-2.9059 9.574c0 4.561 1.809 8.9359 5.0302 12.165s7.5916 5.0488 12.1526 5.0599zm0 6.2751c-4.6479 0-9.1913-1.3782-13.0559-3.9605-3.8645-2.5822-6.8766-6.2524-8.6553-10.5464-1.7786-4.2941-2.244-9.0192-1.3372-13.5777.9067-4.5586 3.1449-8.7459 6.4314-12.0324s7.4738-5.5247 12.0324-6.4314c4.5585-.9068 9.2836-.4414 13.5777 1.3372 4.294 1.7787 7.9642 4.7908 10.5464 8.6553 2.5822 3.8646 3.9605 8.408 3.9605 13.0559-.0111 6.2292-2.4906 12.2-6.8953 16.6047s-10.3755 6.8842-16.6047 6.8953z"/><path d="m57.6889 67.8571c1.6234-1.9738 2.786-4.2848 3.4034-6.7647 2.4737-.6341 4.7812-1.795 6.7647-3.4034-.0983 2.8905-.7249 5.7386-1.8487 8.4034-2.6441 1.0851-5.4625 1.683-8.3194 1.7647zm-17.437-27.605c-2.4354.6346-4.7016 1.7964-6.6386 3.4033.0725-2.8936.7001-5.7464 1.8487-8.4033 2.6585-1.1437 5.5104-1.7711 8.4034-1.8488-1.6234 1.9738-2.786 4.2848-3.4034 6.7647z"/></g></g></svg>