<svg fill="none" height="100" viewBox="0 0 100 100" width="100" xmlns="http://www.w3.org/2000/svg"><path d="m100 50c0-27.6142-22.3858-50-50-50s-50 22.3858-50 50 22.3858 50 50 50 50-22.3858 50-50z" fill="#45cd85"/><g fill="#fff"><path d="m69.8805 62.6438c-1.5671 3.3931-3.9375 6.3532-6.9061 8.6241-2.9685 2.2708-6.4458 3.7841-10.1307 4.4087-3.685.6246-7.4667.3417-11.0177-.8241-3.5511-1.1658-6.7646-3.1794-9.3623-5.8666-2.5978-2.6871-4.5015-5.9669-5.5465-9.5554-1.0449-3.5885-1.1996-7.3775-.4507-11.0393.7489-3.6617 2.3789-7.0857 4.7489-9.9758 2.3701-2.89 5.4087-5.1589 8.8529-6.6103l2.2668 5.3792c-2.57 1.0831-4.8375 2.7761-6.606 4.9327-1.7685 2.1565-2.9848 4.7115-3.5436 7.4439-.5589 2.7324-.4435 5.5598.3363 8.2376.7798 2.6777 2.2003 5.1251 4.1388 7.1302 1.9384 2.0052 4.3363 3.5078 6.9861 4.3777s5.4717 1.081 8.2215.6149c2.7497-.4661 5.3444-1.5953 7.5595-3.2898 2.2152-1.6945 3.984-3.9033 5.1534-6.4353l5.9189.3042z"/><path d="m56.1061 24.5v-4h4.5005v4c2 0 5.1667.6667 6.5 1v4.5c-19-3-15.5011 3.8462-8 5 6.7217 1.0339 11 2 11.5 9 .4 5.6-5.8333 7.6667-9 8v3.5h-5v-3.5c-2.4 0-6.6667-1.6667-8.5-2.5v-5.5c4.5 2.5 17 4.5 17 0s-16.5011-3-18.0005-11c-1.0023-5.3475 5.3333-7.8333 9-8.5z"/></g></svg>