<svg fill="none" height="100" viewBox="0 0 100 100" width="100" xmlns="http://www.w3.org/2000/svg" xmlns:xlink="http://www.w3.org/1999/xlink"><linearGradient id="a" gradientUnits="userSpaceOnUse" x1="50" x2="50" y1="27" y2="74"><stop offset="0" stop-color="#14e6ad"/><stop offset="1" stop-color="#a964de"/></linearGradient><clipPath id="b"><path d="m0 0h100v100h-100z"/></clipPath><g clip-path="url(#b)"><path d="m50 0c9.8891 0 19.5561 2.93245 27.7785 8.42652 8.2225 5.49408 14.6311 13.30298 18.4155 22.43928s4.775 19.1897 2.8453 28.8887c-1.9293 9.6991-6.6913 18.6082-13.684 25.6008-6.9926 6.9927-15.9017 11.7547-25.6008 13.684-9.699 1.9297-19.7524.9391-28.8887-2.8453s-16.9452-10.193-22.43928-18.4155c-5.49407-8.2224-8.42652-17.8894-8.42652-27.7785 0-13.2608 5.26784-25.9785 14.6447-35.3553 9.3768-9.37686 22.0945-14.6447 35.3553-14.6447z" fill="#000"/><g fill="url(#a)" fill-opacity=".92"><path d="m30.3806 62.7889c.3131-.3234.8349-.539 1.3567-.539h46.2307c.8349 0 1.2523 1.0779.6262 1.7247l-9.1836 9.4864c-.313.3234-.8348.539-1.3566.539h-46.1264c-.8348 0-1.2522-1.078-.6261-1.7248z"/><path d="m30.3806 27.539c.3131-.3234.8349-.539 1.3567-.539h46.2307c.8349 0 1.2523 1.078.6261 1.7248l-9.1835 9.4863c-.3131.3234-.8348.539-1.3566.539h-46.1264c-.8349 0-1.2523-1.078-.6261-1.7248z"/><path d="m69.515 45.0018c-.3131-.3234-.8349-.539-1.3567-.539h-46.2307c-.8348 0-1.2522 1.078-.6261 1.7248l9.1835 9.4864c.3131.3233.8349.5389 1.3567.5389h46.2306c.8349 0 1.2524-1.078.6262-1.7248z"/></g></g></svg>