<svg width="56" height="62" viewBox="0 0 56 62" fill="none" xmlns="http://www.w3.org/2000/svg">
<path d="M1.85693 17.8856C1.85693 16.0278 2.88692 14.3232 4.53151 13.4592L25.9216 2.22172C27.3775 1.45683 29.1165 1.45683 30.5724 2.22172L51.9624 13.4592C53.607 14.3232 54.637 16.0278 54.637 17.8856V45.6304C54.637 47.6021 53.4782 49.3898 51.6783 50.1947L30.2882 59.7606C28.9894 60.3414 27.5046 60.3415 26.2057 59.7606L4.8157 50.1947C3.01574 49.3898 1.85693 47.6021 1.85693 45.6304L1.85693 17.8856Z" fill="url(#paint0_linear_12461_2075)" stroke="#00C6A2" stroke-width="2"/>
<path d="M13.6978 20.332L28.2471 14L28.2202 30.5417L20.2803 23.7116L12.3135 30.9295V22.3654C12.3152 21.4922 12.8538 20.6993 13.6978 20.332Z" fill="#00C6A2" fill-opacity="0.5"/>
<path d="M14.1023 42.7645L28.2471 46.8626L28.2202 34.5944L20.2794 27.9414L12.3135 34.9722V40.5274C12.3135 41.5515 13.0367 42.4559 14.1023 42.7645Z" fill="#00C6A2" fill-opacity="0.5"/>
<path d="M43.6445 42.7633L28.2744 46.8632L28.2468 34.5157L43.221 22.4648C43.221 22.4648 45.793 24.3996 45.0373 27.8196C43.7048 33.8511 35.1796 35.9869 35.1796 35.9869L43.9096 41.1561C44.6155 41.578 44.4554 42.547 43.6445 42.7633Z" fill="#45FFDE"/>
<path d="M38.5903 18.9793L28.2734 14L28.2468 30.4315L40.695 20.3509C40.695 20.3509 40.4271 20.0597 39.6901 19.5805C39.4289 19.4114 38.5903 18.9793 38.5903 18.9793Z" fill="#45FFDE"/>
<path d="M40.551 16.0101L46.6602 18.2805C46.9675 18.3943 47.168 18.6656 47.168 18.965V23.1207C47.168 23.4388 46.726 23.5822 46.5042 23.3343L40.2553 16.3687C40.0893 16.1831 40.3062 15.9181 40.551 16.0101Z" fill="#45FFDE"/>
<defs>
<linearGradient id="paint0_linear_12461_2075" x1="28.247" y1="1" x2="28.247" y2="60.6735" gradientUnits="userSpaceOnUse">
<stop stop-color="#011320"/>
<stop offset="1" stop-color="#001320"/>
</linearGradient>
</defs>
</svg>
